<svg width="1440" height="1024" viewBox="0 0 1440 1024" fill="none" xmlns="http://www.w3.org/2000/svg">
<g clip-path="url(#clip0_2502_49)">
<rect width="1440" height="1024" fill="#F7F7FB"/>
<path d="M618.807 0L1440 583.957V586.37L615.414 0H618.807Z" fill="#A0A3BD" fill-opacity="0.05"/>
<path d="M145.6 199.6C142.6 199.6 140.033 199.083 137.9 198.05C135.8 197.017 134.083 195.65 132.75 193.95L136.7 189.85C138 191.35 139.4 192.467 140.9 193.2C142.433 193.9 144.067 194.25 145.8 194.25C147.8 194.25 149.333 193.8 150.4 192.9C151.467 192 152 190.7 152 189C152 187.6 151.6 186.55 150.8 185.85C150 185.117 148.65 184.6 146.75 184.3L143.05 183.7C139.817 183.133 137.517 181.967 136.15 180.2C134.783 178.4 134.1 176.283 134.1 173.85C134.1 170.517 135.183 167.967 137.35 166.2C139.517 164.4 142.517 163.5 146.35 163.5C149.083 163.5 151.433 163.933 153.4 164.8C155.4 165.667 157 166.85 158.2 168.35L154.35 172.45C153.417 171.35 152.3 170.483 151 169.85C149.7 169.183 148.167 168.85 146.4 168.85C142.6 168.85 140.7 170.417 140.7 173.55C140.7 174.883 141.1 175.9 141.9 176.6C142.7 177.3 144.067 177.817 146 178.15L149.65 178.8C152.683 179.367 154.933 180.483 156.4 182.15C157.867 183.817 158.6 185.95 158.6 188.55C158.6 190.183 158.317 191.683 157.75 193.05C157.183 194.383 156.35 195.55 155.25 196.55C154.15 197.517 152.783 198.267 151.15 198.8C149.55 199.333 147.7 199.6 145.6 199.6ZM177.58 169.2C176.08 169.2 175.014 168.883 174.38 168.25C173.78 167.617 173.48 166.85 173.48 165.95V164.75C173.48 163.85 173.78 163.083 174.38 162.45C175.014 161.817 176.08 161.5 177.58 161.5C179.08 161.5 180.13 161.817 180.73 162.45C181.364 163.083 181.68 163.85 181.68 164.75V165.95C181.68 166.85 181.364 167.617 180.73 168.25C180.13 168.883 179.08 169.2 177.58 169.2ZM165.88 193.95H174.38V178.25H165.88V173.2H180.78V193.95H188.68V199H165.88V193.95ZM205.861 199.6C203.028 199.6 200.578 199.167 198.511 198.3C196.444 197.4 194.828 196.2 193.661 194.7L197.411 191.3C198.478 192.467 199.694 193.367 201.061 194C202.461 194.633 204.078 194.95 205.911 194.95C207.511 194.95 208.794 194.683 209.761 194.15C210.728 193.617 211.211 192.8 211.211 191.7C211.211 190.767 210.878 190.133 210.211 189.8C209.578 189.467 208.728 189.217 207.661 189.05L203.511 188.4C202.444 188.233 201.394 188 200.361 187.7C199.361 187.367 198.461 186.917 197.661 186.35C196.894 185.783 196.278 185.067 195.811 184.2C195.344 183.3 195.111 182.217 195.111 180.95C195.111 178.25 196.111 176.183 198.111 174.75C200.144 173.317 202.928 172.6 206.461 172.6C208.961 172.6 211.078 172.95 212.811 173.65C214.578 174.35 216.028 175.333 217.161 176.6L213.811 180.3C213.078 179.5 212.094 178.8 210.861 178.2C209.661 177.567 208.128 177.25 206.261 177.25C202.994 177.25 201.361 178.267 201.361 180.3C201.361 181.233 201.694 181.883 202.361 182.25C203.028 182.583 203.894 182.833 204.961 183L209.061 183.65C210.161 183.817 211.211 184.067 212.211 184.4C213.244 184.7 214.144 185.133 214.911 185.7C215.711 186.267 216.344 186.983 216.811 187.85C217.278 188.717 217.511 189.783 217.511 191.05C217.511 193.717 216.478 195.817 214.411 197.35C212.378 198.85 209.528 199.6 205.861 199.6ZM237.691 199C235.225 199 233.408 198.35 232.241 197.05C231.075 195.75 230.491 194.067 230.491 192V178.25H222.991V173.2H228.091C229.125 173.2 229.858 173 230.291 172.6C230.725 172.167 230.941 171.417 230.941 170.35V164.1H236.891V173.2H247.391V178.25H236.891V193.95H247.391V199H237.691ZM266.522 199.6C264.455 199.6 262.622 199.283 261.022 198.65C259.422 198.017 258.072 197.117 256.972 195.95C255.905 194.783 255.089 193.383 254.522 191.75C253.955 190.083 253.672 188.217 253.672 186.15C253.672 184.05 253.955 182.167 254.522 180.5C255.122 178.833 255.955 177.417 257.022 176.25C258.089 175.083 259.372 174.183 260.872 173.55C262.405 172.917 264.122 172.6 266.022 172.6C267.889 172.6 269.572 172.917 271.072 173.55C272.572 174.15 273.839 175.017 274.872 176.15C275.939 177.283 276.755 178.65 277.322 180.25C277.889 181.85 278.172 183.617 278.172 185.55V187.65H260.072V188.3C260.072 190.167 260.655 191.683 261.822 192.85C262.989 193.983 264.622 194.55 266.722 194.55C268.322 194.55 269.689 194.233 270.822 193.6C271.989 192.933 272.955 192.067 273.722 191L277.372 194.65C276.439 196.017 275.072 197.183 273.272 198.15C271.505 199.117 269.255 199.6 266.522 199.6ZM266.072 177.3C264.272 177.3 262.822 177.867 261.722 179C260.622 180.133 260.072 181.633 260.072 183.5V183.85H271.772V183.4C271.772 181.533 271.255 180.05 270.222 178.95C269.222 177.85 267.839 177.3 266.072 177.3ZM282.752 199V173.2H288.052V176.75H288.352C288.752 175.617 289.319 174.65 290.052 173.85C290.819 173.017 291.886 172.6 293.252 172.6C294.552 172.6 295.586 172.983 296.352 173.75C297.119 174.483 297.619 175.533 297.852 176.9H298.102C298.536 175.733 299.169 174.733 300.002 173.9C300.869 173.033 302.086 172.6 303.652 172.6C305.552 172.6 306.919 173.283 307.752 174.65C308.586 176.017 309.002 178.033 309.002 180.7V199H303.752V181.45C303.752 179.95 303.536 178.9 303.102 178.3C302.702 177.7 302.086 177.4 301.252 177.4C300.486 177.4 299.836 177.65 299.302 178.15C298.802 178.65 298.552 179.417 298.552 180.45V199H293.252V181.45C293.252 179.95 293.052 178.9 292.652 178.3C292.252 177.7 291.636 177.4 290.802 177.4C290.002 177.4 289.336 177.65 288.802 178.15C288.302 178.65 288.052 179.417 288.052 180.45V199H282.752ZM335.383 199C333.816 199 332.599 198.617 331.733 197.85C330.899 197.05 330.399 195.95 330.233 194.55H329.983C329.516 196.15 328.599 197.4 327.233 198.3C325.866 199.167 324.183 199.6 322.183 199.6C319.583 199.6 317.516 198.917 315.983 197.55C314.449 196.183 313.683 194.283 313.683 191.85C313.683 186.65 317.499 184.05 325.133 184.05H329.683V182.35C329.683 180.717 329.283 179.483 328.483 178.65C327.683 177.817 326.383 177.4 324.583 177.4C322.949 177.4 321.633 177.717 320.633 178.35C319.633 178.983 318.783 179.8 318.083 180.8L314.433 177.7C315.233 176.267 316.516 175.067 318.283 174.1C320.083 173.1 322.399 172.6 325.233 172.6C328.633 172.6 331.283 173.4 333.183 175C335.116 176.567 336.083 178.917 336.083 182.05V194.2H339.133V199H335.383ZM324.333 195.2C325.866 195.2 327.133 194.85 328.133 194.15C329.166 193.417 329.683 192.433 329.683 191.2V187.75H325.283C321.783 187.75 320.033 188.85 320.033 191.05V192.05C320.033 193.083 320.416 193.867 321.183 194.4C321.949 194.933 322.999 195.2 324.333 195.2ZM390.994 194.45H390.644C389.944 196.017 388.977 197.267 387.744 198.2C386.544 199.133 384.944 199.6 382.944 199.6C381.477 199.6 380.127 199.333 378.894 198.8C377.694 198.233 376.66 197.4 375.794 196.3C374.927 195.167 374.26 193.75 373.794 192.05C373.327 190.35 373.094 188.367 373.094 186.1C373.094 181.567 373.994 178.183 375.794 175.95C377.594 173.717 379.977 172.6 382.944 172.6C384.944 172.6 386.544 173.067 387.744 174C388.977 174.933 389.944 176.183 390.644 177.75H390.994V162H397.394V199H390.994V194.45ZM385.644 194.5C386.377 194.5 387.06 194.417 387.694 194.25C388.36 194.05 388.927 193.783 389.394 193.45C389.894 193.083 390.277 192.633 390.544 192.1C390.844 191.533 390.994 190.883 390.994 190.15V182.05C390.994 181.317 390.844 180.683 390.544 180.15C390.277 179.583 389.894 179.133 389.394 178.8C388.927 178.433 388.36 178.167 387.694 178C387.06 177.8 386.377 177.7 385.644 177.7C383.777 177.7 382.327 178.267 381.294 179.4C380.294 180.533 379.794 182.083 379.794 184.05V188.15C379.794 190.117 380.294 191.667 381.294 192.8C382.327 193.933 383.777 194.5 385.644 194.5ZM416.424 199.6C414.358 199.6 412.524 199.283 410.924 198.65C409.324 198.017 407.974 197.117 406.874 195.95C405.808 194.783 404.991 193.383 404.424 191.75C403.858 190.083 403.574 188.217 403.574 186.15C403.574 184.05 403.858 182.167 404.424 180.5C405.024 178.833 405.858 177.417 406.924 176.25C407.991 175.083 409.274 174.183 410.774 173.55C412.308 172.917 414.024 172.6 415.924 172.6C417.791 172.6 419.474 172.917 420.974 173.55C422.474 174.15 423.741 175.017 424.774 176.15C425.841 177.283 426.658 178.65 427.224 180.25C427.791 181.85 428.074 183.617 428.074 185.55V187.65H409.974V188.3C409.974 190.167 410.558 191.683 411.724 192.85C412.891 193.983 414.524 194.55 416.624 194.55C418.224 194.55 419.591 194.233 420.724 193.6C421.891 192.933 422.858 192.067 423.624 191L427.274 194.65C426.341 196.017 424.974 197.183 423.174 198.15C421.408 199.117 419.158 199.6 416.424 199.6ZM415.974 177.3C414.174 177.3 412.724 177.867 411.624 179C410.524 180.133 409.974 181.633 409.974 183.5V183.85H421.674V183.4C421.674 181.533 421.158 180.05 420.124 178.95C419.124 177.85 417.741 177.3 415.974 177.3ZM489.585 201.7C489.585 204.4 488.452 206.383 486.185 207.65C483.952 208.95 480.452 209.6 475.685 209.6C473.352 209.6 471.402 209.45 469.835 209.15C468.268 208.883 467.002 208.483 466.035 207.95C465.102 207.417 464.435 206.767 464.035 206C463.635 205.267 463.435 204.433 463.435 203.5C463.435 202.067 463.852 200.967 464.685 200.2C465.518 199.433 466.685 198.867 468.185 198.5V198.1C467.185 197.767 466.385 197.3 465.785 196.7C465.218 196.1 464.935 195.267 464.935 194.2C464.935 192.933 465.352 191.983 466.185 191.35C467.052 190.717 468.185 190.233 469.585 189.9V189.65C468.052 188.917 466.852 187.883 465.985 186.55C465.118 185.217 464.685 183.6 464.685 181.7C464.685 180.267 464.935 179 465.435 177.9C465.968 176.767 466.702 175.817 467.635 175.05C468.602 174.25 469.752 173.65 471.085 173.25C472.418 172.817 473.902 172.6 475.535 172.6C477.268 172.6 478.835 172.833 480.235 173.3V172.2C480.235 171.2 480.552 170.367 481.185 169.7C481.852 169.033 482.768 168.7 483.935 168.7H488.585V173.5H482.485V174.35C483.752 175.117 484.718 176.117 485.385 177.35C486.085 178.55 486.435 180 486.435 181.7C486.435 183.133 486.168 184.417 485.635 185.55C485.135 186.683 484.402 187.633 483.435 188.4C482.502 189.167 481.352 189.767 479.985 190.2C478.652 190.6 477.168 190.8 475.535 190.8C474.868 190.8 474.218 190.783 473.585 190.75C472.985 190.683 472.402 190.567 471.835 190.4C471.368 190.567 470.918 190.833 470.485 191.2C470.052 191.567 469.835 192.05 469.835 192.65C469.835 193.45 470.218 193.95 470.985 194.15C471.752 194.317 472.668 194.4 473.735 194.4H479.585C481.385 194.4 482.918 194.583 484.185 194.95C485.452 195.283 486.485 195.783 487.285 196.45C488.085 197.083 488.668 197.85 489.035 198.75C489.402 199.65 489.585 200.633 489.585 201.7ZM483.585 202.15C483.585 201.383 483.268 200.767 482.635 200.3C482.035 199.867 480.902 199.65 479.235 199.65H470.335C469.335 200.217 468.835 201.05 468.835 202.15C468.835 203.05 469.202 203.8 469.935 204.4C470.702 205 471.985 205.3 473.785 205.3H477.935C481.702 205.3 483.585 204.25 483.585 202.15ZM475.535 186.6C477.168 186.6 478.368 186.217 479.135 185.45C479.902 184.65 480.285 183.617 480.285 182.35V181.05C480.285 179.783 479.902 178.767 479.135 178C478.368 177.2 477.168 176.8 475.535 176.8C473.935 176.8 472.752 177.2 471.985 178C471.218 178.767 470.835 179.783 470.835 181.05V182.35C470.835 183.617 471.218 184.65 471.985 185.45C472.752 186.217 473.935 186.6 475.535 186.6ZM506.366 199.6C504.299 199.6 502.466 199.283 500.866 198.65C499.266 198.017 497.916 197.117 496.816 195.95C495.749 194.783 494.932 193.383 494.366 191.75C493.799 190.083 493.516 188.217 493.516 186.15C493.516 184.05 493.799 182.167 494.366 180.5C494.966 178.833 495.799 177.417 496.866 176.25C497.932 175.083 499.216 174.183 500.716 173.55C502.249 172.917 503.966 172.6 505.866 172.6C507.732 172.6 509.416 172.917 510.916 173.55C512.416 174.15 513.682 175.017 514.716 176.15C515.782 177.283 516.599 178.65 517.166 180.25C517.732 181.85 518.016 183.617 518.016 185.55V187.65H499.916V188.3C499.916 190.167 500.499 191.683 501.666 192.85C502.832 193.983 504.466 194.55 506.566 194.55C508.166 194.55 509.532 194.233 510.666 193.6C511.832 192.933 512.799 192.067 513.566 191L517.216 194.65C516.282 196.017 514.916 197.183 513.116 198.15C511.349 199.117 509.099 199.6 506.366 199.6ZM505.916 177.3C504.116 177.3 502.666 177.867 501.566 179C500.466 180.133 499.916 181.633 499.916 183.5V183.85H511.616V183.4C511.616 181.533 511.099 180.05 510.066 178.95C509.066 177.85 507.682 177.3 505.916 177.3ZM535.646 199.6C532.813 199.6 530.363 199.167 528.296 198.3C526.229 197.4 524.613 196.2 523.446 194.7L527.196 191.3C528.263 192.467 529.479 193.367 530.846 194C532.246 194.633 533.863 194.95 535.696 194.95C537.296 194.95 538.579 194.683 539.546 194.15C540.513 193.617 540.996 192.8 540.996 191.7C540.996 190.767 540.663 190.133 539.996 189.8C539.363 189.467 538.513 189.217 537.446 189.05L533.296 188.4C532.229 188.233 531.179 188 530.146 187.7C529.146 187.367 528.246 186.917 527.446 186.35C526.679 185.783 526.063 185.067 525.596 184.2C525.129 183.3 524.896 182.217 524.896 180.95C524.896 178.25 525.896 176.183 527.896 174.75C529.929 173.317 532.713 172.6 536.246 172.6C538.746 172.6 540.863 172.95 542.596 173.65C544.363 174.35 545.813 175.333 546.946 176.6L543.596 180.3C542.863 179.5 541.879 178.8 540.646 178.2C539.446 177.567 537.913 177.25 536.046 177.25C532.779 177.25 531.146 178.267 531.146 180.3C531.146 181.233 531.479 181.883 532.146 182.25C532.813 182.583 533.679 182.833 534.746 183L538.846 183.65C539.946 183.817 540.996 184.067 541.996 184.4C543.029 184.7 543.929 185.133 544.696 185.7C545.496 186.267 546.129 186.983 546.596 187.85C547.063 188.717 547.296 189.783 547.296 191.05C547.296 193.717 546.263 195.817 544.196 197.35C542.163 198.85 539.313 199.6 535.646 199.6ZM567.477 199C565.01 199 563.193 198.35 562.027 197.05C560.86 195.75 560.277 194.067 560.277 192V178.25H552.777V173.2H557.877C558.91 173.2 559.643 173 560.077 172.6C560.51 172.167 560.727 171.417 560.727 170.35V164.1H566.677V173.2H577.177V178.25H566.677V193.95H577.177V199H567.477ZM605.207 199C603.64 199 602.424 198.617 601.557 197.85C600.724 197.05 600.224 195.95 600.057 194.55H599.807C599.34 196.15 598.424 197.4 597.057 198.3C595.69 199.167 594.007 199.6 592.007 199.6C589.407 199.6 587.34 198.917 585.807 197.55C584.274 196.183 583.507 194.283 583.507 191.85C583.507 186.65 587.324 184.05 594.957 184.05H599.507V182.35C599.507 180.717 599.107 179.483 598.307 178.65C597.507 177.817 596.207 177.4 594.407 177.4C592.774 177.4 591.457 177.717 590.457 178.35C589.457 178.983 588.607 179.8 587.907 180.8L584.257 177.7C585.057 176.267 586.34 175.067 588.107 174.1C589.907 173.1 592.224 172.6 595.057 172.6C598.457 172.6 601.107 173.4 603.007 175C604.94 176.567 605.907 178.917 605.907 182.05V194.2H608.957V199H605.207ZM594.157 195.2C595.69 195.2 596.957 194.85 597.957 194.15C598.99 193.417 599.507 192.433 599.507 191.2V187.75H595.107C591.607 187.75 589.857 188.85 589.857 191.05V192.05C589.857 193.083 590.24 193.867 591.007 194.4C591.774 194.933 592.824 195.2 594.157 195.2ZM599.007 169.1C598.207 169.1 597.507 168.983 596.907 168.75C596.307 168.517 595.707 168.267 595.107 168C594.374 167.667 593.707 167.4 593.107 167.2C592.507 167 591.924 166.9 591.357 166.9C590.79 166.9 590.29 167 589.857 167.2C589.424 167.4 588.94 167.717 588.407 168.15L586.107 165.2C586.674 164.333 587.39 163.617 588.257 163.05C589.157 162.45 590.24 162.15 591.507 162.15C592.307 162.15 593.007 162.267 593.607 162.5C594.207 162.733 594.807 162.983 595.407 163.25C596.14 163.583 596.807 163.85 597.407 164.05C598.007 164.25 598.59 164.35 599.157 164.35C599.724 164.35 600.224 164.25 600.657 164.05C601.09 163.85 601.574 163.533 602.107 163.1L604.407 166.05C603.84 166.917 603.107 167.65 602.207 168.25C601.34 168.817 600.274 169.1 599.007 169.1ZM625.688 199.6C623.721 199.6 621.954 199.283 620.388 198.65C618.854 198.017 617.538 197.117 616.438 195.95C615.371 194.783 614.538 193.367 613.938 191.7C613.371 190.033 613.088 188.167 613.088 186.1C613.088 184.033 613.371 182.167 613.938 180.5C614.538 178.833 615.371 177.417 616.438 176.25C617.538 175.083 618.854 174.183 620.388 173.55C621.954 172.917 623.721 172.6 625.688 172.6C627.621 172.6 629.371 172.917 630.938 173.55C632.504 174.183 633.821 175.083 634.888 176.25C635.988 177.417 636.821 178.833 637.388 180.5C637.988 182.167 638.288 184.033 638.288 186.1C638.288 188.167 637.988 190.033 637.388 191.7C636.821 193.367 635.988 194.783 634.888 195.95C633.821 197.117 632.504 198.017 630.938 198.65C629.371 199.283 627.621 199.6 625.688 199.6ZM625.688 194.7C627.521 194.7 628.971 194.15 630.038 193.05C631.104 191.917 631.638 190.267 631.638 188.1V184.1C631.638 181.933 631.104 180.3 630.038 179.2C628.971 178.067 627.521 177.5 625.688 177.5C623.854 177.5 622.404 178.067 621.338 179.2C620.271 180.3 619.738 181.933 619.738 184.1V188.1C619.738 190.267 620.271 191.917 621.338 193.05C622.404 194.15 623.854 194.7 625.688 194.7Z" fill="#514F6E"/>
<path d="M687.374 0L1440 535.199V537.612L683.98 0H687.374Z" fill="#A0A3BD" fill-opacity="0.05"/>
<path d="M755.944 0L1440 486.44V488.853L752.551 0H755.944Z" fill="#A0A3BD" fill-opacity="0.05"/>
<path d="M824.51 0L1440 437.679V440.092L821.117 0H824.51Z" fill="#A0A3BD" fill-opacity="0.05"/>
<path d="M893.08 0L1440 388.92V391.333L889.685 0H893.08Z" fill="#A0A3BD" fill-opacity="0.05"/>
<path d="M961.648 0L1440 340.161V342.574L958.254 0H961.648Z" fill="#A0A3BD" fill-opacity="0.05"/>
<path d="M1030.21 0L1440 291.401V293.816L1026.82 0H1030.21Z" fill="#A0A3BD" fill-opacity="0.05"/>
<path d="M1098.78 0L1440 242.642V245.055L1095.39 0H1098.78Z" fill="#A0A3BD" fill-opacity="0.05"/>
<path d="M1167.35 0L1440 193.883V196.296L1163.96 0H1167.35Z" fill="#A0A3BD" fill-opacity="0.05"/>
<path d="M1235.92 0L1440 145.122V147.537L1232.52 0H1235.92Z" fill="#A0A3BD" fill-opacity="0.05"/>
<path d="M1304.49 0L1440 96.3637V98.7766L1301.09 0H1304.49Z" fill="#A0A3BD" fill-opacity="0.05"/>
<path d="M1373.06 0L1440 47.6048V50.0178L1369.66 0H1373.06Z" fill="#A0A3BD" fill-opacity="0.05"/>
<path d="M1440 0V1.25893L1438.23 0H1440Z" fill="#A0A3BD" fill-opacity="0.05"/>
<path d="M550.24 0L1440 632.718V635.131L546.847 0H550.24Z" fill="#A0A3BD" fill-opacity="0.05"/>
<path d="M481.672 0L1440 681.477V683.89L478.277 0H481.672Z" fill="#A0A3BD" fill-opacity="0.05"/>
<path d="M413.106 0L1440 730.236V732.649L409.71 0H413.106Z" fill="#A0A3BD" fill-opacity="0.05"/>
<path d="M344.536 0L1440 778.994V781.409L341.143 0H344.536Z" fill="#A0A3BD" fill-opacity="0.05"/>
<path d="M275.966 0L1440 827.755V830.168L272.573 0H275.966Z" fill="#A0A3BD" fill-opacity="0.05"/>
<path d="M207.4 0L1440 876.514V878.927L204.006 0H207.4Z" fill="#A0A3BD" fill-opacity="0.05"/>
<path d="M138.832 0L1440 925.273V927.686L135.439 0H138.832Z" fill="#A0A3BD" fill-opacity="0.05"/>
<path d="M70.2655 0L1440 974.033V976.446L66.8723 0H70.2655Z" fill="#A0A3BD" fill-opacity="0.05"/>
<path d="M1440 1024H1438.3L0 1.20737V0H1.69786L1440 1022.79V1024Z" fill="#A0A3BD" fill-opacity="0.05"/>
<path d="M1369.73 1024L0 49.9676V47.5547L1373.13 1024H1369.73Z" fill="#A0A3BD" fill-opacity="0.05"/>
<path d="M1301.17 1024L0 98.7255V96.3125L1304.56 1024H1301.17Z" fill="#A0A3BD" fill-opacity="0.05"/>
<path d="M1232.6 1024L0 147.483V145.07L1235.99 1024H1232.6Z" fill="#A0A3BD" fill-opacity="0.05"/>
<path d="M1164.03 1024L0 196.249V193.836L1167.42 1024H1164.03Z" fill="#A0A3BD" fill-opacity="0.05"/>
<path d="M1095.46 1024L0 244.999V242.586L1098.86 1024H1095.46Z" fill="#A0A3BD" fill-opacity="0.05"/>
<path d="M1026.89 1024L0 293.766V291.352L1030.29 1024H1026.89Z" fill="#A0A3BD" fill-opacity="0.05"/>
<path d="M958.327 1024L0 342.522V340.109L961.72 1024H958.327Z" fill="#A0A3BD" fill-opacity="0.05"/>
<path d="M889.76 1024L0 391.28V388.867L893.153 1024H889.76Z" fill="#A0A3BD" fill-opacity="0.05"/>
<path d="M821.19 1024L0 440.038V437.625L824.586 1024H821.19Z" fill="#A0A3BD" fill-opacity="0.05"/>
<path d="M752.623 1024L0 488.805V486.391L756.016 1024H752.623Z" fill="#A0A3BD" fill-opacity="0.05"/>
<path d="M684.056 1023.99L0 537.554V535.141L687.449 1023.99H684.056Z" fill="#A0A3BD" fill-opacity="0.05"/>
<path d="M615.486 1024L0 586.319V583.906L618.882 1024H615.486Z" fill="#A0A3BD" fill-opacity="0.05"/>
<path d="M546.919 1024L0 635.077V632.664L550.312 1024H546.919Z" fill="#A0A3BD" fill-opacity="0.05"/>
<path d="M478.352 1024L0 683.843V681.43L481.745 1024H478.352Z" fill="#A0A3BD" fill-opacity="0.05"/>
<path d="M409.785 1024L0 732.593V730.18L413.178 1024H409.785Z" fill="#A0A3BD" fill-opacity="0.05"/>
<path d="M341.215 1024L0 781.358V778.945L344.608 1024H341.215Z" fill="#A0A3BD" fill-opacity="0.05"/>
<path d="M272.648 1024L0 830.116V827.703L276.041 1024H272.648Z" fill="#A0A3BD" fill-opacity="0.05"/>
<path d="M204.078 1024L0 878.874V876.461L207.474 1024H204.078Z" fill="#A0A3BD" fill-opacity="0.05"/>
<path d="M135.511 1024L0 927.634V925.219L138.905 1024H135.511Z" fill="#A0A3BD" fill-opacity="0.05"/>
<path d="M66.9443 1024L0 976.397V973.984L70.3375 1024H66.9443Z" fill="#A0A3BD" fill-opacity="0.05"/>
<path d="M0 1024V1022.74L1.77038 1024H0Z" fill="#A0A3BD" fill-opacity="0.05"/>
<path d="M653.607 0L1440 559.211V561.624L650.214 0H653.607Z" fill="#A0A3BD" fill-opacity="0.05"/>
<path d="M722.176 0L1440 510.452V512.865L718.78 0H722.176Z" fill="#A0A3BD" fill-opacity="0.05"/>
<path d="M790.743 0L1440 461.693V464.106L787.35 0H790.743Z" fill="#A0A3BD" fill-opacity="0.05"/>
<path d="M859.311 0L1440 412.932V415.345L855.918 0H859.311Z" fill="#A0A3BD" fill-opacity="0.05"/>
<path d="M927.88 0L1440 364.174V366.587L924.484 0H927.88Z" fill="#A0A3BD" fill-opacity="0.05"/>
<path d="M996.447 0L1440 315.415V317.828L993.054 0H996.447Z" fill="#A0A3BD" fill-opacity="0.05"/>
<path d="M1065.01 0L1440 266.654V269.067L1061.62 0H1065.01Z" fill="#A0A3BD" fill-opacity="0.05"/>
<path d="M1133.58 0L1440 217.895V220.308L1130.19 0H1133.58Z" fill="#A0A3BD" fill-opacity="0.05"/>
<path d="M1202.15 0L1440 169.136V171.549L1198.76 0H1202.15Z" fill="#A0A3BD" fill-opacity="0.05"/>
<path d="M1270.72 0L1440 120.376V122.791L1267.33 0H1270.72Z" fill="#A0A3BD" fill-opacity="0.05"/>
<path d="M1339.29 0L1440 71.617V74.03L1335.89 0H1339.29Z" fill="#A0A3BD" fill-opacity="0.05"/>
<path d="M1407.86 0L1440 22.8582V25.2712L1404.46 0H1407.86Z" fill="#A0A3BD" fill-opacity="0.05"/>
<path d="M585.039 0L1440 607.971V610.384L581.646 0H585.039Z" fill="#A0A3BD" fill-opacity="0.05"/>
<path d="M516.473 0L1440 656.73V659.143L513.077 0H516.473Z" fill="#A0A3BD" fill-opacity="0.05"/>
<path d="M447.903 0L1440 705.489V707.902L444.51 0H447.903Z" fill="#A0A3BD" fill-opacity="0.05"/>
<path d="M379.335 0L1440 754.248V756.663L375.942 0H379.335Z" fill="#A0A3BD" fill-opacity="0.05"/>
<path d="M310.769 0L1440 803.007V805.421L307.374 0H310.769Z" fill="#A0A3BD" fill-opacity="0.05"/>
<path d="M242.202 0L1440 851.767V854.18L238.806 0H242.202Z" fill="#A0A3BD" fill-opacity="0.05"/>
<path d="M173.632 0L1440 900.528V902.941L170.238 0H173.632Z" fill="#A0A3BD" fill-opacity="0.05"/>
<path d="M105.065 0L1440 949.287V951.7L101.672 0H105.065Z" fill="#A0A3BD" fill-opacity="0.05"/>
<path d="M36.4978 0L1440 998.046V1000.46L33.1021 0H36.4978Z" fill="#A0A3BD" fill-opacity="0.05"/>
<path d="M1404.53 1024L0 25.2176V22.8047L1407.93 1024H1404.53Z" fill="#A0A3BD" fill-opacity="0.05"/>
<path d="M1335.97 1024L0 73.9833V71.5703L1339.36 1024H1335.97Z" fill="#A0A3BD" fill-opacity="0.05"/>
<path d="M1267.4 1024L0 122.733V120.32L1270.79 1024H1267.4Z" fill="#A0A3BD" fill-opacity="0.05"/>
<path d="M1198.83 1024L0 171.499V169.086L1202.22 1024H1198.83Z" fill="#A0A3BD" fill-opacity="0.05"/>
<path d="M1130.26 1024L0 220.257V217.844L1133.66 1024H1130.26Z" fill="#A0A3BD" fill-opacity="0.05"/>
<path d="M1061.69 1024L0 269.015V266.602L1065.09 1024H1061.69Z" fill="#A0A3BD" fill-opacity="0.05"/>
<path d="M993.127 1024L0 317.772V315.359L996.52 1024H993.127Z" fill="#A0A3BD" fill-opacity="0.05"/>
<path d="M924.56 1024L0 366.538V364.125L927.953 1024H924.56Z" fill="#A0A3BD" fill-opacity="0.05"/>
<path d="M855.99 1024L0 415.296V412.883L859.386 1024H855.99Z" fill="#A0A3BD" fill-opacity="0.05"/>
<path d="M787.423 1024L0 464.054V461.641L790.816 1024H787.423Z" fill="#A0A3BD" fill-opacity="0.05"/>
<path d="M718.856 1024L0 512.811V510.398L722.249 1024H718.856Z" fill="#A0A3BD" fill-opacity="0.05"/>
<path d="M650.286 1024L0 561.577V559.164L653.682 1024H650.286Z" fill="#A0A3BD" fill-opacity="0.05"/>
<path d="M581.719 1024L0 610.335V607.922L585.112 1024H581.719Z" fill="#A0A3BD" fill-opacity="0.05"/>
<path d="M513.152 1024L0 659.093V656.68L516.545 1024H513.152Z" fill="#A0A3BD" fill-opacity="0.05"/>
<path d="M444.582 1024L0 707.85V705.438L447.978 1024H444.582Z" fill="#A0A3BD" fill-opacity="0.05"/>
<path d="M376.015 1024L0 756.61V754.195L379.408 1024H376.015Z" fill="#A0A3BD" fill-opacity="0.05"/>
<path d="M307.448 1024L0 805.366V802.953L310.841 1024H307.448Z" fill="#A0A3BD" fill-opacity="0.05"/>
<path d="M238.881 1024L0 854.132V851.719L242.274 1024H238.881Z" fill="#A0A3BD" fill-opacity="0.05"/>
<path d="M170.311 1023.99L0 902.882V900.469L173.705 1023.99H170.311Z" fill="#A0A3BD" fill-opacity="0.05"/>
<path d="M101.744 1024L0 951.647V949.234L105.137 1024H101.744Z" fill="#A0A3BD" fill-opacity="0.05"/>
<path d="M33.1771 1024L0 1000.41V997.992L36.5703 1024H33.1771Z" fill="#A0A3BD" fill-opacity="0.05"/>
</g>
<defs>
<clipPath id="clip0_2502_49">
<rect width="1440" height="1024" fill="white"/>
</clipPath>
</defs>
</svg>
